<svg viewBox="0 0 112 16" fill="none" xmlns="http://www.w3.org/2000/svg"><path d="M8.32 3.6h.88v8.4h-.88v-8.4Zm-5.26 8.4h-.88v-8.4h.88v8.4Zm5.34-3.88h-5.43v-.78h5.43v.78Zm5.17 3.88v-7.63h-2.95v-.77h6.79v.77h-2.95v7.63h-.89Zm5.26 0v-8.4h.73l3.84 6.55h-.38l3.8-6.55h.73v8.4h-.85v-7.07h.2l-3.5 6h-.42l-3.53-6h.23v7.07h-.85Zm11.46 0v-8.4h.89v7.63h4.7v.77h-5.59Zm8.86 0 3.84-8.4h.88l3.84 8.4h-.94l-3.53-7.88h.36l-3.52 7.88h-.93Zm1.51-2.24.27-.72h4.88l.27.72h-5.42Zm10.82 2.3a3.09 3.09 0 0 1-3.25-3.22 3 3 0 0 1 1.57-2.8c.5-.26 1.05-.4 1.68-.4.53 0 1.02.1 1.45.31.43.21.77.52 1.02.94l-.64.43a2 2 0 0 0-.8-.7 2.4 2.4 0 0 0-1.05-.24c-.44 0-.85.1-1.2.32-.37.2-.65.48-.86.85-.2.37-.31.8-.31 1.3 0 .49.1.92.31 1.29a2.27 2.27 0 0 0 2.06 1.16c.38 0 .73-.07 1.05-.22.32-.16.59-.39.8-.7l.64.43a2.5 2.5 0 0 1-1.02.94c-.43.2-.92.31-1.45.31Zm8.09-.06v-1.4l-.04-.22v-2.33c0-.53-.15-.95-.45-1.23-.3-.3-.74-.44-1.33-.44a3.33 3.33 0 0 0-2.1.75l-.39-.64c.32-.27.7-.48 1.15-.62.45-.15.92-.23 1.42-.23.82 0 1.44.2 1.88.61.45.4.68 1.01.68 1.84v3.91h-.82Zm-2.17.06a3.1 3.1 0 0 1-1.24-.23c-.34-.16-.6-.37-.79-.65a1.7 1.7 0 0 1-.28-.96c0-.32.08-.62.23-.88.16-.28.42-.5.77-.65.36-.17.84-.25 1.44-.25h2.17v.63h-2.15c-.6 0-1.03.11-1.27.33-.23.21-.35.48-.35.8 0 .36.14.65.42.86.28.22.68.33 1.18.33.48 0 .9-.11 1.24-.33.35-.22.6-.54.76-.96l.2.6a2 2 0 0 1-.84.99c-.4.25-.9.37-1.5.37Zm7.8 0a2.96 2.96 0 0 1-2.74-1.54 3.4 3.4 0 0 1-.4-1.68c0-.64.14-1.2.41-1.68.27-.48.65-.85 1.12-1.11a3.25 3.25 0 0 1 3.09-.04c.44.25.8.61 1.05 1.1.26.47.4 1.05.4 1.73a3.6 3.6 0 0 1-.39 1.74 2.73 2.73 0 0 1-2.53 1.48Zm.07-.76c.45 0 .85-.1 1.2-.3.36-.2.64-.5.84-.86.2-.38.31-.8.31-1.3s-.1-.92-.31-1.3a2.31 2.31 0 0 0-2.04-1.16 2.3 2.3 0 0 0-2.03 1.17c-.2.37-.31.8-.31 1.3 0 .48.1.91.31 1.29.2.37.49.66.84.86.35.2.75.3 1.19.3Zm2.37.7v-1.9l.09-1.27-.12-1.27v-4.46h.85v8.9h-.82Zm5.87.06c-.66 0-1.23-.14-1.73-.4a3.06 3.06 0 0 1-1.58-2.82c0-.62.13-1.17.4-1.65a2.99 2.99 0 0 1 2.68-1.55 3 3 0 0 1 1.57.4c.47.27.83.65 1.1 1.14a3.4 3.4 0 0 1 .38 1.8v.13h-5.49v-.64h5.03l-.33.25a2.41 2.41 0 0 0-1.1-2.05 2.2 2.2 0 0 0-1.16-.3c-.43 0-.82.1-1.16.3-.35.2-.62.48-.8.84-.2.36-.3.77-.3 1.24v.13c0 .48.1.9.32 1.27.21.36.5.65.88.85.39.2.82.3 1.31.3.39 0 .74-.06 1.07-.2.34-.14.62-.34.86-.62l.48.55c-.28.33-.63.59-1.05.77a3.5 3.5 0 0 1-1.38.26Zm12.44-6.42c.5 0 .95.1 1.33.3.38.2.68.49.89.89.21.4.32.9.32 1.51v3.66h-.85v-3.58c0-.66-.16-1.16-.48-1.5-.31-.34-.76-.51-1.33-.51-.44 0-.81.09-1.13.27-.31.18-.56.44-.73.78-.17.34-.26.75-.26 1.23v3.31h-.85v-3.58c0-.66-.16-1.16-.48-1.5a1.75 1.75 0 0 0-1.34-.51c-.43 0-.8.09-1.12.27a1.8 1.8 0 0 0-.74.78c-.17.34-.25.75-.25 1.23v3.31h-.86v-6.3h.82v1.7l-.13-.3c.2-.45.5-.8.92-1.06.43-.27.94-.4 1.53-.4.61 0 1.14.16 1.57.47.43.3.71.76.84 1.38l-.34-.13c.19-.52.51-.93.97-1.24a2.94 2.94 0 0 1 1.7-.48Zm4.78 8.75c-.3 0-.58-.05-.85-.15-.26-.1-.5-.24-.68-.43l.4-.63a1.64 1.64 0 0 0 1.14.48c.28 0 .52-.08.72-.24.21-.16.4-.43.6-.82l.4-.92.1-.14 2.59-5.84h.84l-3.16 7.06c-.17.4-.37.73-.59.97-.2.24-.43.4-.68.5-.25.1-.52.16-.83.16Zm1.68-2.21-2.9-6.48h.89l2.56 5.78-.55.7Zm18.81-6.43-5.25-3.25-5.19 3.25v-4.34l5.22-.58 5.22.58v4.34Zm0 .58-2.1 1.3-3.14-1.97v.57l2.68 1.68-.46.29-2.22-1.4v.58l1.75 1.1-.41.29h-.01l-1.33-.82v.58l.87.53-.89.56-5.16-3.23 5.17-3.28 5.24 3.22Zm0 5.44-5.22 3.27-5.22-3.27v-4.74l5.2 3.25v.59l-3.56-2.23v.57l3.58 2.26v.6l-3.57-2.23v.57l3.57 2.26 3.6-2.27v-2.44l1.62-1.01v4.82Zm-5.22-11.77-6 .66v11.58l6 3.76 6-3.76v-11.58l-6-.66Z" fill="#BDBDBD"/></svg>